<svg viewBox="0 0 14 14" xmlns="http://www.w3.org/2000/svg">
<g clip-path="url(#clip0_232_11162)">
<path d="M11.6375 3.22935L9.60396 1.19585C9.22571 0.81556 8.7758 0.514062 8.28027 0.308798C7.78473 0.103534 7.25341 -0.00141783 6.71704 1.44644e-05H4.08329C3.31003 0.000940715 2.5687 0.308529 2.02192 0.855309C1.47514 1.40209 1.16755 2.14342 1.16663 2.91668V11.0833C1.16755 11.8566 1.47514 12.5979 2.02192 13.1447C2.5687 13.6915 3.31003 13.9991 4.08329 14H9.91663C10.6899 13.9991 11.4312 13.6915 11.978 13.1447C12.5248 12.5979 12.8324 11.8566 12.8333 11.0833V6.11626C12.8347 5.5799 12.7298 5.04858 12.5245 4.55304C12.3192 4.0575 12.0177 3.60759 11.6375 3.22935ZM10.8126 4.05418C10.9906 4.23759 11.1437 4.4435 11.2682 4.66668H8.74996C8.59525 4.66668 8.44688 4.60522 8.33748 4.49583C8.22808 4.38643 8.16663 4.23806 8.16663 4.08335V1.5651C8.3898 1.68957 8.59572 1.84274 8.77913 2.02068L10.8126 4.05418ZM11.6666 11.0833C11.6666 11.5475 11.4823 11.9926 11.1541 12.3208C10.8259 12.649 10.3808 12.8333 9.91663 12.8333H4.08329C3.61916 12.8333 3.17404 12.649 2.84586 12.3208C2.51767 11.9926 2.33329 11.5475 2.33329 11.0833V2.91668C2.33329 2.45255 2.51767 2.00743 2.84586 1.67924C3.17404 1.35106 3.61916 1.16668 4.08329 1.16668H6.71704C6.81329 1.16668 6.90546 1.18535 6.99996 1.1941V4.08335C6.99996 4.54748 7.18433 4.9926 7.51252 5.32079C7.84071 5.64897 8.28583 5.83335 8.74996 5.83335H11.6392C11.648 5.92785 11.6666 6.02001 11.6666 6.11626V11.0833ZM9.75563 7.76476C9.86214 7.87681 9.91982 8.02656 9.91599 8.18112C9.91216 8.33567 9.84714 8.48238 9.73521 8.58902L7.64163 10.5805C7.31253 10.9044 6.86876 11.0851 6.407 11.0833C5.94524 11.0814 5.50293 10.8972 5.17646 10.5706L4.27813 9.7691C4.16256 9.66606 4.09265 9.52134 4.08379 9.36676C4.07941 9.29022 4.09014 9.21357 4.11537 9.14118C4.14061 9.06878 4.17986 9.00207 4.23088 8.94485C4.28189 8.88762 4.34368 8.84101 4.41272 8.80767C4.48175 8.77432 4.55668 8.7549 4.63321 8.75052C4.78779 8.74165 4.93956 8.79456 5.05513 8.8976L5.97971 9.72243C6.03264 9.78187 6.09717 9.82985 6.16934 9.86342C6.2415 9.89698 6.31977 9.91543 6.39933 9.91761C6.47889 9.9198 6.55806 9.90568 6.63196 9.87613C6.70586 9.84657 6.77293 9.80221 6.82904 9.74577L8.92904 7.74435C8.98457 7.69125 9.05004 7.64965 9.1217 7.62193C9.19335 7.59421 9.26977 7.58092 9.34658 7.58281C9.42338 7.58471 9.49905 7.60176 9.56925 7.63299C9.63945 7.66421 9.70279 7.70899 9.75563 7.76476Z"/>
</g>
<defs>
<clipPath id="clip0_232_11162">
<rect width="14" height="14" />
</clipPath>
</defs>
</svg>
