    <svg
        viewBox="0 0 16 16"
        fill="none"
        xmlns="http://www.w3.org/2000/svg"
    >
        <g clip-path="url(#clip0_203_1394)">
            <path
                d="M8 9.99561C6.89544 9.99561 6 10.891 6 11.9956V15.9956H10V11.9956C10 10.891 9.10456 9.99561 8 9.99561Z"
                fill="white"
            />
            <path
                d="M11.3333 11.9954V15.9954H14C15.1046 15.9954 16 15.1 16 13.9954V7.91475C16.0002 7.56841 15.8656 7.2356 15.6247 6.98675L9.95934 0.862065C8.95972 -0.219498 7.27259 -0.285904 6.19103 0.713721C6.13966 0.761221 6.09016 0.81069 6.04269 0.862065L0.387344 6.98475C0.139156 7.23463 -9.37027e-05 7.57257 4.73072e-08 7.92475V13.9954C4.73072e-08 15.1 0.895437 15.9954 2 15.9954H4.66666V11.9954C4.67912 10.1775 6.14684 8.69304 7.91894 8.65028C9.75031 8.6061 11.3194 10.1159 11.3333 11.9954Z"
                fill="white"
            />
            <path
                d="M8 9.99561C6.89544 9.99561 6 10.891 6 11.9956V15.9956H10V11.9956C10 10.891 9.10456 9.99561 8 9.99561Z"
                fill="white"
            />
        </g>
        <defs>
            <clipPath id="clip0_203_1394">
                <rect
                    width="16"
                    height="16"
                    fill="white"
                />
            </clipPath>
        </defs>
    </svg>
