  <svg
        viewBox="0 0 20 20"
        fill="#475467"
        xmlns="http://www.w3.org/2000/svg"
    >
        <path
            d="M15.8334 7.02V5.83332C15.8334 2.61168 13.2217 0 10.0001 0C6.77839 0 4.16675 2.61168 4.16675 5.83332V7.02C2.65011 7.68191 1.66894 9.17855 1.66675 10.8333V15.8333C1.66948 18.1334 3.53335 19.9973 5.83339 20H14.1667C16.4667 19.9973 18.3306 18.1334 18.3334 15.8333V10.8333C18.3312 9.17855 17.35 7.68191 15.8334 7.02ZM10.8334 14.1667C10.8334 14.6269 10.4603 15 10.0001 15C9.53983 15 9.16675 14.6269 9.16675 14.1667V12.5C9.16675 12.0398 9.53983 11.6667 10.0001 11.6667C10.4603 11.6667 10.8334 12.0398 10.8334 12.5V14.1667ZM14.1667 6.66668H5.83339V5.83336C5.83339 3.53219 7.69886 1.66668 10.0001 1.66668C12.3013 1.66668 14.1667 3.53215 14.1667 5.83336V6.66668Z"
        />
    </svg>