<svg width="430" height="430" viewBox="0 0 430 430" fill="none" xmlns="http://www.w3.org/2000/svg">
<rect width="430" height="430" rx="215" fill="#F5F5F5"/>
<path d="M248.563 190.423C260.831 190.423 270.787 200.379 270.787 212.647V272.955C270.787 288.115 264.765 302.654 254.045 313.373C243.326 324.093 228.787 330.115 213.628 330.115C198.468 330.115 183.929 324.093 173.21 313.373C162.49 302.654 156.468 288.115 156.468 272.955V212.647C156.468 200.379 166.412 190.423 178.692 190.423H248.563ZM151.757 190.423C147.183 195.927 144.432 202.717 143.883 209.853L143.756 212.647V272.955C143.756 283.712 146.195 293.896 150.538 302.989C143.011 305.003 135.121 305.258 127.48 303.736C119.838 302.214 112.649 298.954 106.468 294.21C100.287 289.465 95.2805 283.363 91.8349 276.374C88.3893 269.386 86.5971 261.698 86.5969 253.906V212.647C86.5971 207.069 88.6945 201.696 92.4726 197.593C96.2508 193.49 101.433 190.958 106.992 190.499L108.821 190.423H151.757ZM275.499 190.423H318.359C330.626 190.423 340.582 200.379 340.582 212.647V253.919C340.584 261.706 338.796 269.389 335.355 276.374C331.915 283.36 326.914 289.461 320.74 294.206C314.567 298.951 307.384 302.213 299.749 303.741C292.113 305.268 284.229 305.02 276.705 303.014C280.515 295.039 282.851 286.251 283.372 276.956L283.486 272.955V212.647C283.486 204.202 280.489 196.455 275.486 190.423H275.499ZM213.59 101.528C223.694 101.528 233.384 105.542 240.529 112.687C247.674 119.831 251.687 129.522 251.687 139.626C251.687 149.73 247.674 159.42 240.529 166.565C233.384 173.71 223.694 177.724 213.59 177.724C203.485 177.724 193.795 173.71 186.65 166.565C179.506 159.42 175.492 149.73 175.492 139.626C175.492 129.522 179.506 119.831 186.65 112.687C193.795 105.542 203.485 101.528 213.59 101.528ZM296.135 114.227C304.555 114.227 312.63 117.572 318.584 123.526C324.538 129.48 327.883 137.555 327.883 145.975C327.883 154.396 324.538 162.471 318.584 168.425C312.63 174.379 304.555 177.724 296.135 177.724C287.715 177.724 279.639 174.379 273.685 168.425C267.732 162.471 264.387 154.396 264.387 145.975C264.387 137.555 267.732 129.48 273.685 123.526C279.639 117.572 287.715 114.227 296.135 114.227ZM131.044 114.227C139.464 114.227 147.54 117.572 153.494 123.526C159.448 129.48 162.793 137.555 162.793 145.975C162.793 154.396 159.448 162.471 153.494 168.425C147.54 174.379 139.464 177.724 131.044 177.724C122.624 177.724 114.549 174.379 108.595 168.425C102.641 162.471 99.2962 154.396 99.2962 145.975C99.2962 137.555 102.641 129.48 108.595 123.526C114.549 117.572 122.624 114.227 131.044 114.227Z" fill="#D6D5D1"/>
</svg>
